<svg id="Capa_1" data-name="Capa 1" xmlns="http://www.w3.org/2000/svg" viewBox="0 0 489 447"><defs><style>.cls-1{fill:#fff;}</style></defs><title>devshub-white</title><path class="cls-1" d="M333.5,21.2c-15,5.1-22.9,13.1-27,27.2-1.3,4.6-1.6,7.8-1.1,14.5l.7,8.6-17.3,13c-9.5,7.1-19.7,14.9-22.6,17.3s-6.1,4.4-7,4.5-3.5-1.1-5.7-2.4c-9.7-6.1-25.3-8.5-36.1-5.5-18.8,5.2-31.2,17-37,35.4-2,6.3-1.5,23.3.9,29.7,6.6,17.5,21.3,29.9,38.9,32.6,9.8,1.6,21.3.2,29.1-3.6,6.8-3.2,7.5-3.1,21.2,2,5.5,2,10.9,3.9,12,4.2a21.19,21.19,0,0,1,4,1.4c2.6,1.1,10.2,3.8,14,4.9,1.7.5,8.6,2.9,15.5,5.3s13.4,4.8,14.5,5.2c8.1,2.8,7.5,2.1,7.5,9.9,0,3.9-.4,7.6-.8,8.1s-3.4,1.8-6.7,2.9-7.8,2.4-10,3.1-6.7,2-10,3-7.8,2.3-10,3-6.5,1.9-9.5,2.8c-12.8,3.8-26.8,7.9-30.5,9.1-2.2.7-6.5,2-9.5,2.9s-10.1,3-15.7,4.8-10.6,2.8-11.2,2.5-2.7-3.6-4.7-7.2c-8.3-14.9-21.5-28.2-37.6-37.9-15.1-9.1-50.48-15.15-51.81-15.19-25.56-.77-49.2,6.56-68.59,21.39C54.3,234.2,41,247.1,41,248.6a16.28,16.28,0,0,1-2.5,3.6c-3.2,3.7-8.5,13-10.9,18.8-1,2.5-2.2,5.4-2.7,6.5-3.8,9.3-7.5,32.4-6.6,41.7,1.7,17.1,2.6,21.2,7.9,35.3,9.3,24.4,29,45.8,52.8,57.2,17.6,8.4,41.2,12.9,55.8,10.5a77.91,77.91,0,0,1,10-1.2c9.7,0,36-11.7,48-21.3,14.1-11.4,26.1-27.1,32.9-43.1,6.6-15.6,9.7-38.2,7.4-55.4-1.2-9.2-.4-12.2,2.9-12.2a20.16,20.16,0,0,0,5.7-1.4c3.9-1.3,9.1-2.9,22.3-6.6,4.1-1.2,8.6-2.5,10-3,3.7-1.3,21.2-6.6,31.5-9.6,16.4-4.8,17.9-5.2,26.4-7.8a81.17,81.17,0,0,1,10.2-2.6c1.1,0,3.5,2.6,6.3,6.9,8.2,12.8,19.3,22.3,31.7,27.2,11.8,4.7,13.4,5.1,25.6,5.6,9.7.5,13.2.2,17.2-1.1a32.61,32.61,0,0,1,6.6-1.6,12.74,12.74,0,0,0,4.3-1.3c1.5-.8,4.5-2.3,6.7-3.3,16.2-7.7,30.4-25.2,36-44.4,1.5-4.9,1.9-9.5,1.9-18.5,0-13.3-1.3-19.1-6.3-29.5-5.5-11.3-6.2-12.3-14.5-20.6-6.5-6.4-10-8.9-17-12.4-13.6-6.6-22.6-8.4-36.6-7.6-13.4.7-24.5,4.5-35.9,12-7.7,5.1-21.1,20.1-21.1,23.5,0,3.2-4.8,1.9-42.5-11.5-7.1-2.5-16.7-5.8-21.2-7.2-4.8-1.6-8.5-3.4-8.8-4.2s.4-4.1,1.5-7.3c2.5-7.1,2.8-23.8.5-29.4-2.9-6.8-2.2-8.2,6.6-14.7,7.5-5.5,18.1-13.7,30.5-23.5,6.6-5.2,7.6-5.6,11.4-3.6,19.4,10,41.6,2.9,52.1-16.8,3.1-5.8,3.3-6.8,3.3-16.2s-.1-10.5-3.1-16.6c-3.4-6.8-10.4-14.3-16.2-17.3C352.8,20.3,340.6,18.8,333.5,21.2Zm20.2,17a28.4,28.4,0,0,1,10.1,10.5c.6,1.3,1.2,5.3,1.2,8.9,0,5.3-.5,7.6-2.4,10.9-4.5,7.6-13.9,12.3-21.9,11-9.5-1.6-16.7-8.2-18.8-17.2-2.2-9.4,3.6-21,12.3-24.8C339.4,35.2,348.8,35.6,353.7,38.2Zm-116.9,79c13.6,3.3,23.2,15.9,23.2,30.4,0,9.1-3.1,16.4-9.5,22.3-7.3,6.7-11.7,8.5-21.5,8.5-7.5,0-9.1-.3-13.8-2.9A33.22,33.22,0,0,1,199,156.1c-2.4-8.3-2.5-10.3-.3-16.7C204.6,121.8,219.8,113,236.8,117.2ZM425,180.7A52.58,52.58,0,0,1,452.8,205c6.5,12.1,7.6,27.4,2.8,39.8s-12.9,21.5-24,27c-12.6,6.4-21.9,7.5-34.3,4.3-35.1-9.1-49.5-48.9-28.1-77.7,7.5-10,19.2-17.4,30.8-19.5C406.4,177.8,419.7,178.8,425,180.7ZM147.9,244.1c25.2,8.2,43.6,27.5,50.6,53.4,2,7.5,1.6,30.1-.6,38.5-2.1,7.7-9.2,20.6-15,27.4-12.8,15-26.5,22.6-47.1,26.2-9.6,1.7-10.5,1.7-20.5,0-11.3-1.9-23-6.1-30.2-10.9-7.6-5.1-20.5-18.6-24.4-25.7C54.6,341.9,50,325.9,50,315.7c0-5.8,2.9-20.3,5.2-26.2C69.9,251.8,110.3,232.1,147.9,244.1Z"/></svg>